<?xml version="1.0" standalone="no"?>
<!DOCTYPE svg PUBLIC "-//W3C//DTD SVG 20010904//EN"
 "http://www.w3.org/TR/2001/REC-SVG-20010904/DTD/svg10.dtd">
<svg version="1.0" xmlns="http://www.w3.org/2000/svg"
 width="512.000000pt" height="512.000000pt" viewBox="0 0 512.000000 512.000000"
 preserveAspectRatio="xMidYMid meet">
<metadata>
Created by potrace 1.14, written by Peter Selinger 2001-2017
</metadata>
<g transform="translate(0.000000,512.000000) scale(0.100000,-0.100000)"
fill="#000000" stroke="none">
<path d="M0 2560 l0 -2560 2560 0 2560 0 0 2560 0 2560 -2560 0 -2560 0 0
-2560z m1585 1580 c30 -11 103 -71 207 -167 37 -34 81 -69 98 -78 34 -18 36
-30 15 -99 -8 -27 -15 -55 -15 -63 0 -20 24 -16 46 8 10 12 44 43 74 69 l55
48 -32 -67 c-75 -154 -71 -324 11 -462 l34 -57 -38 -11 c-55 -16 -155 -17
-174 -2 -23 20 -19 40 10 51 37 15 24 35 -25 38 -52 4 -87 -17 -107 -63 -30
-74 -12 -120 62 -158 l45 -23 3 -180 c2 -155 5 -188 25 -249 84 -257 252 -425
479 -480 103 -25 250 -17 352 20 213 77 395 268 469 491 17 51 31 99 31 108 0
12 7 14 33 8 17 -4 62 -7 99 -7 59 0 70 3 105 31 52 43 61 72 36 120 -23 45
-62 61 -105 45 -21 -8 -28 -17 -28 -36 0 -15 5 -25 13 -24 6 1 19 1 27 0 12
-1 11 -4 -3 -12 -14 -8 -27 -5 -60 14 -23 14 -50 34 -59 44 -17 19 -16 21 26
52 76 57 138 153 182 281 22 64 22 65 33 37 6 -16 11 -46 11 -67 0 -35 3 -39
42 -54 100 -40 259 -41 348 -2 45 20 36 20 -42 0 -68 -18 -150 -15 -226 8 -38
12 -42 15 -30 30 11 14 20 15 63 7 33 -6 82 -6 142 1 151 17 199 14 217 -12
32 -45 21 -88 -48 -184 -86 -120 -106 -185 -116 -374 -4 -84 -13 -160 -21
-180 -13 -34 -14 -31 -20 85 -7 126 -21 185 -45 185 -12 0 -13 -12 -7 -67 4
-38 7 -108 6 -158 -4 -231 -133 -436 -336 -535 -112 -54 -127 -53 -82 5 59 79
88 210 65 306 -26 113 -35 104 -40 -43 -4 -118 -8 -140 -26 -165 -52 -71 -193
-154 -346 -204 -73 -24 -107 -29 -181 -29 l-92 0 42 36 c40 33 113 123 113
139 0 4 -18 -9 -41 -30 -67 -60 -159 -114 -232 -137 -59 -18 -84 -20 -165 -14
-240 17 -429 102 -583 262 -99 104 -119 140 -140 254 -10 56 -20 104 -22 106
-2 3 -7 -22 -11 -55 -7 -58 5 -156 24 -207 5 -13 6 -24 2 -24 -29 0 -215 145
-298 232 -69 71 -162 208 -199 291 -74 169 -48 326 70 420 53 42 156 97 220
117 57 18 65 29 13 20 -71 -14 -138 -39 -226 -86 -46 -25 -94 -44 -105 -42
-20 3 -22 9 -21 65 1 80 30 138 131 266 155 196 171 235 182 443 8 172 17 190
86 164z m902 -190 c60 -26 125 -91 155 -152 26 -54 44 -123 30 -116 -133 69
-281 81 -437 37 -42 -12 -154 -67 -194 -96 l-24 -18 6 50 c15 107 105 238 197
285 84 43 184 47 267 10z m773 -175 c121 -61 170 -141 178 -289 l5 -89 -74 74
c-137 138 -314 193 -514 159 -27 -4 -51 -6 -53 -5 -8 8 78 92 125 122 106 68
233 79 333 28z m-499 -11 c30 -9 58 -18 62 -21 4 -3 -7 -23 -26 -46 -19 -23
-39 -52 -46 -65 -16 -31 -31 -19 -31 26 -1 20 -7 54 -14 74 -7 21 -11 40 -8
43 7 6 0 8 63 -11z m-214 -78 c29 -8 71 -25 95 -38 42 -23 43 -25 39 -68 -4
-59 -37 -165 -67 -215 -12 -22 -41 -58 -63 -79 l-40 -39 -55 22 -54 23 24 51
c64 138 -7 297 -131 297 -37 0 -48 -5 -75 -36 -17 -20 -36 -47 -41 -61 -15
-39 -11 -160 6 -193 15 -29 15 -30 -21 -45 -48 -20 -49 -19 -73 11 -49 63 -88
236 -61 270 30 35 183 99 275 114 62 11 173 4 242 -14z m577 -115 c152 -54
276 -169 276 -256 0 -57 -97 -186 -176 -236 l-33 -20 -46 20 c-50 22 -56 38
-24 67 34 30 69 114 69 164 0 57 -16 88 -59 117 -106 71 -238 -32 -251 -197
l-5 -64 -55 3 c-30 1 -56 4 -57 5 -2 2 -12 38 -24 82 -24 91 -21 176 9 264 26
77 39 82 192 77 93 -4 140 -10 184 -26z m-825 -15 c7 -8 12 -46 12 -86 0 -87
-18 -123 -59 -118 -23 3 -28 9 -36 48 -10 53 6 122 35 151 23 23 33 24 48 5z
m425 -368 c9 -20 1 -24 -59 -31 -35 -4 -46 0 -80 29 l-39 33 50 53 c28 29 57
65 64 78 13 24 14 21 35 -60 12 -47 25 -93 29 -102z m326 168 c0 -7 -16 -48
-36 -90 -26 -57 -40 -76 -52 -74 -39 8 -40 102 -1 152 15 19 30 26 55 26 22 0
34 -5 34 -14z m-855 -295 c85 -31 257 -71 309 -71 26 0 48 6 56 15 18 22 32
19 63 -14 36 -39 99 -59 227 -71 58 -6 119 -13 135 -16 46 -9 148 -46 163 -59
18 -16 4 -44 -27 -52 -68 -19 -508 11 -535 37 -5 5 -9 28 -10 51 -1 57 -20 60
-47 7 -12 -24 -23 -44 -24 -46 -10 -11 -386 93 -520 144 -88 34 -95 39 -95 64
0 15 3 30 8 34 4 4 59 6 122 4 87 -3 130 -10 175 -27z m-1013 -1023 c38 -23
72 -47 75 -54 2 -6 -14 -78 -36 -160 -22 -81 -39 -150 -37 -152 3 -2 49 27
103 65 54 38 119 84 144 101 l46 31 82 -52 c49 -32 79 -57 76 -65 -9 -25 -337
-452 -347 -452 -12 0 -128 69 -128 76 0 2 39 64 88 136 139 212 145 221 130
212 -7 -4 -65 -49 -128 -99 -63 -50 -127 -99 -141 -108 -27 -18 -59 -14 -59 8
0 7 23 86 50 175 28 89 50 165 50 169 0 3 -48 -66 -106 -154 -59 -88 -108
-161 -109 -163 -2 -2 -33 15 -69 38 -41 26 -63 46 -59 53 38 65 293 437 299
437 3 0 37 -19 76 -42z m2757 -230 c27 -57 78 -164 114 -240 l65 -136 -54 -36
c-29 -20 -58 -36 -63 -36 -11 0 -275 449 -267 457 18 18 133 92 144 92 7 1 35
-45 61 -101z m-235 -107 c79 -169 98 -229 99 -306 1 -83 -22 -136 -79 -183
-45 -37 -128 -64 -186 -60 -46 3 -50 9 -72 101 -6 26 -5 27 39 27 56 0 107 20
129 51 34 49 13 136 -73 306 -22 46 -41 86 -41 91 0 7 115 70 131 71 3 1 27
-44 53 -98z m-1831 -62 c78 -26 119 -57 154 -116 47 -81 33 -203 -33 -290
-100 -132 -324 -118 -419 25 -93 142 -13 343 153 388 65 17 74 17 145 -7z
m512 -231 c22 -87 42 -158 45 -158 4 0 40 72 82 159 l75 159 69 -5 c38 -2 83
-6 100 -9 l31 -4 -9 -58 c-4 -31 -15 -115 -23 -187 -9 -71 -22 -174 -30 -227
-8 -54 -15 -101 -15 -104 0 -7 -147 0 -155 7 -2 3 3 94 11 203 8 109 13 203
12 208 -2 5 -35 -69 -74 -164 -64 -156 -73 -173 -96 -176 -28 -3 -24 -16 -79
243 -22 103 -24 107 -30 70 -4 -22 -10 -96 -14 -165 -3 -69 -9 -138 -11 -153
l-6 -28 -76 3 -77 3 2 40 c1 22 7 101 13 175 6 74 13 173 16 220 3 47 7 91 10
98 3 9 27 12 96 10 l92 -3 41 -157z m802 147 c62 -18 125 -78 149 -140 26 -70
17 -179 -21 -240 -107 -170 -358 -162 -447 14 -106 208 91 434 319 366z"/>
<path d="M1557 4083 c-13 -13 -7 -33 11 -33 10 0 59 -42 110 -94 74 -74 102
-96 135 -104 64 -17 64 1 0 51 -32 25 -76 64 -98 87 -74 78 -137 115 -158 93z"/>
<path d="M1275 3087 c-9 -14 -21 -55 -27 -91 -27 -160 49 -350 201 -503 60
-60 167 -140 176 -131 3 2 -32 38 -77 78 -82 75 -182 199 -220 274 -46 91 -60
209 -37 330 12 66 8 78 -16 43z"/>
<path d="M3736 2664 c5 -67 -17 -222 -39 -277 -23 -53 -85 -147 -125 -189 -49
-51 -28 -48 25 3 54 52 97 117 124 188 25 66 37 233 20 296 -10 37 -10 36 -5
-21z"/>
<path d="M1866 2318 c12 -42 33 -73 81 -124 125 -132 251 -200 416 -223 76
-11 148 3 215 39 37 21 37 21 7 16 -16 -2 -57 -9 -90 -16 -120 -24 -259 6
-380 84 -72 47 -194 161 -226 213 -24 38 -33 43 -23 11z"/>
<path d="M1742 1497 c-28 -13 -62 -75 -62 -112 0 -62 47 -105 113 -105 42 0
75 24 93 66 24 56 18 92 -20 130 -36 36 -78 44 -124 21z"/>
<path d="M3021 1391 c-27 -25 -31 -36 -31 -80 0 -42 5 -56 31 -86 27 -30 37
-35 76 -35 36 0 50 6 75 30 28 29 30 35 26 87 -4 48 -10 61 -37 85 -44 39 -97
39 -140 -1z"/>
</g>
</svg>
